<?xml version="1.0" standalone="no"?>
<!DOCTYPE svg PUBLIC "-//W3C//DTD SVG 20010904//EN"
 "http://www.w3.org/TR/2001/REC-SVG-20010904/DTD/svg10.dtd">
<svg version="1.0" xmlns="http://www.w3.org/2000/svg"
 width="432.000000pt" height="145.000000pt" viewBox="0 0 432.000000 145.000000"
 preserveAspectRatio="xMidYMid meet">

<g transform="translate(0.000000,145.000000) scale(0.100000,-0.100000)"
fill="#000000" stroke="none">
<path d="M1817 1163 c-4 -3 -7 -67 -8 -142 0 -81 -4 -128 -8 -116 -15 34 -49
57 -93 62 -35 4 -50 0 -83 -22 -24 -17 -41 -23 -43 -16 -6 18 -58 41 -94 41
-19 0 -44 -7 -57 -16 -17 -13 -25 -14 -31 -5 -4 8 -30 12 -71 11 -35 -1 -83 2
-106 5 -92 16 -163 -23 -163 -88 0 -39 23 -64 88 -96 24 -12 42 -27 39 -34 -6
-19 -56 -20 -83 -2 -23 15 -25 14 -44 -17 l-20 -33 20 -17 c46 -38 165 -34
207 8 l23 23 0 -24 c0 -24 3 -25 55 -25 l54 0 3 107 c3 107 3 108 30 117 22 8
32 6 48 -9 17 -16 20 -30 20 -117 l0 -98 50 0 50 0 0 93 c0 68 4 99 16 115 19
27 48 28 74 2 17 -17 20 -33 20 -115 l0 -95 105 0 105 0 0 255 0 255 -48 0
c-27 0 -52 -3 -55 -7z m-527 -295 c0 -67 -1 -70 -17 -55 -10 8 -39 25 -65 36
-27 11 -48 25 -48 31 0 18 30 23 65 13 32 -10 34 -9 45 18 7 16 14 29 16 29 2
0 4 -32 4 -72z"/>
<path d="M1937 1163 c-4 -3 -7 -118 -7 -255 l0 -248 55 0 c40 0 55 4 55 14 0
11 8 10 37 -5 21 -10 48 -19 60 -19 39 0 88 26 116 61 l27 34 0 -42 0 -43 50
0 50 0 0 90 c0 111 14 133 84 128 l43 -3 -8 -33 c-16 -74 39 -163 115 -183 52
-14 116 -4 160 26 l36 24 0 -24 c0 -24 3 -25 55 -25 l55 0 0 150 0 150 -55 0
-55 0 0 -36 0 -37 -22 28 c-57 73 -178 73 -252 -1 l-29 -29 17 33 c10 19 15
37 11 40 -4 4 -28 7 -55 7 -37 0 -54 -5 -74 -24 -26 -24 -26 -24 -26 -3 0 20
-5 22 -50 22 l-50 0 0 -41 0 -41 -26 32 c-50 59 -111 74 -179 46 l-35 -15 0
115 0 114 -48 0 c-27 0 -52 -3 -55 -7z m771 -275 c26 -26 13 -38 -43 -38 -56
0 -69 12 -43 38 16 16 70 16 86 0z m-554 -24 c62 -62 -16 -158 -90 -109 -29
19 -33 78 -7 107 20 22 76 24 97 2z m656 -99 l0 -36 -31 16 c-28 15 -34 15
-64 1 -43 -21 -57 -20 -89 5 -51 40 -36 49 79 49 l105 0 0 -35z"/>
<path d="M2832 1134 c-26 -18 -30 -65 -6 -88 23 -24 70 -20 88 6 21 30 20 54
-4 78 -24 24 -48 25 -78 4z"/>
<path d="M3090 963 c-8 -3 -23 -12 -32 -21 -16 -14 -18 -13 -18 1 0 14 -10 17
-50 17 l-50 0 0 -150 0 -150 50 0 50 0 0 99 c0 92 2 101 22 115 32 22 64 20
82 -6 12 -16 16 -47 16 -115 l0 -93 50 0 50 0 0 110 c0 128 -12 164 -65 186
-35 14 -77 17 -105 7z"/>
<path d="M1813 540 c0 -30 2 -43 4 -27 2 15 2 39 0 55 -2 15 -4 2 -4 -28z"/>
<path d="M2193 540 c0 -30 2 -43 4 -27 2 15 2 39 0 55 -2 15 -4 2 -4 -28z"/>
<path d="M2069 565 c-7 -6 2 -75 10 -75 3 0 6 16 5 35 -1 35 -6 49 -15 40z"/>
<path d="M1674 546 c-10 -25 0 -51 21 -54 18 -2 19 -2 3 8 -10 6 -18 17 -18
25 0 8 8 19 18 24 16 10 16 10 -1 11 -10 0 -20 -6 -23 -14z"/>
<path d="M1920 538 c-10 -21 -10 -21 3 -5 21 25 37 21 37 -9 0 -22 -4 -25 -21
-21 -16 4 -19 3 -11 -5 19 -19 44 -1 40 29 -4 36 -33 42 -48 11z"/>
<path d="M2217 549 c6 -8 13 -25 16 -39 4 -17 5 -15 4 9 -1 21 -8 36 -17 39
-12 4 -13 2 -3 -9z"/>
<path d="M2333 525 c0 -22 2 -30 4 -17 2 12 2 30 0 40 -3 9 -5 -1 -4 -23z"/>
<path d="M2443 525 c0 -22 2 -30 4 -17 2 12 2 30 0 40 -3 9 -5 -1 -4 -23z"/>
<path d="M2467 553 c6 -4 13 -22 16 -38 4 -27 5 -27 3 4 0 21 -7 36 -16 38
-10 3 -11 2 -3 -4z"/>
<path d="M2584 546 c-11 -28 1 -51 24 -50 12 0 21 -4 19 -10 -2 -6 -12 -10
-21 -10 -9 1 -16 -2 -16 -7 0 -13 24 -11 38 3 7 7 12 28 12 48 0 31 -3 36 -25
38 -15 1 -28 -4 -31 -12z m43 -12 c8 -21 -13 -42 -28 -27 -13 13 -5 43 11 43
6 0 13 -7 17 -16z"/>
<path d="M2014 318 c-4 -6 0 -16 9 -23 21 -15 22 -29 2 -21 -8 3 -15 1 -15 -4
0 -14 27 -12 36 2 4 6 0 16 -9 23 -21 15 -22 29 -1 21 8 -3 12 -2 9 4 -8 13
-22 13 -31 -2z"/>
<path d="M2113 295 c0 -22 2 -30 4 -17 2 12 2 30 0 40 -3 9 -5 -1 -4 -23z"/>
<path d="M2137 323 c6 -4 13 -22 16 -38 4 -27 5 -27 3 4 0 21 -7 36 -16 38
-10 3 -11 2 -3 -4z"/>
<path d="M2189 314 c-16 -19 -1 -48 27 -51 15 -2 14 -1 -3 7 -13 5 -23 16 -23
25 0 9 10 20 23 25 15 6 17 9 6 9 -9 1 -22 -6 -30 -15z"/>
<path d="M2254 306 c-3 -14 -3 -30 1 -35 8 -14 32 -14 40 -1 3 5 0 7 -8 4 -8
-3 -18 -1 -22 5 -4 7 4 11 20 11 23 0 24 2 15 20 -15 27 -38 25 -46 -4z m36 4
c0 -5 -7 -10 -16 -10 -8 0 -12 5 -9 10 3 6 10 10 16 10 5 0 9 -4 9 -10z"/>
<path d="M2072 295 c0 -16 2 -22 5 -12 2 9 2 23 0 30 -3 6 -5 -1 -5 -18z"/>
<path d="M2025 221 c-3 -7 0 -8 9 -5 21 8 22 -29 1 -46 -22 -18 -18 -30 8 -29
18 1 18 2 4 6 -17 4 -17 6 -2 23 18 20 17 51 -2 57 -6 2 -14 -1 -18 -6z"/>
<path d="M2091 208 c-11 -30 2 -63 25 -63 27 0 28 78 1 83 -11 2 -20 -5 -26
-20z m34 -23 c0 -16 -6 -30 -12 -32 -9 -3 -13 7 -13 32 0 25 4 35 13 33 6 -3
12 -17 12 -33z"/>
<path d="M2172 218 c-30 -30 1 -94 33 -68 18 15 20 51 3 68 -15 15 -21 15 -36
0z m33 -34 c0 -19 -5 -29 -15 -29 -16 0 -25 28 -16 51 10 25 31 10 31 -22z"/>
<path d="M2252 218 c-30 -30 1 -94 33 -68 18 15 20 51 3 68 -15 15 -21 15 -36
0z m33 -34 c0 -19 -5 -29 -15 -29 -16 0 -25 28 -16 51 10 25 31 10 31 -22z"/>
</g>
</svg>
